<svg width="24" height="24" viewBox="0 0 24 24" fill="currentColor" xmlns="http://www.w3.org/2000/svg">
<path fill-rule="evenodd" clip-rule="evenodd" d="M10.4582 2.73114C11.0985 3.05541 11.6198 3.43495 12 3.75406C12.3803 3.43495 12.9015 3.05541 13.5417 2.73114C14.9927 1.9963 17.0809 1.5418 19.4293 2.73113C20.9294 3.49086 21.9442 4.64041 22.4968 6.03611C23.0419 7.41305 23.116 8.97189 22.8536 10.5534C22.4065 13.248 20.5648 15.6525 18.6732 17.5051C16.7581 19.3808 14.6582 20.8193 13.4739 21.5694C12.5675 22.1435 11.4326 22.1435 10.5261 21.5694C9.34185 20.8193 7.24191 19.3808 5.32674 17.5051C3.43518 15.6525 1.59341 13.2481 1.14632 10.5534C0.883901 8.97189 0.957972 7.41305 1.50313 6.03611C2.05573 4.64041 3.07049 3.49086 4.5706 2.73113C6.919 1.5418 9.00728 1.9963 10.4582 2.73114ZM11.2382 5.78545C11.4281 6.00892 11.7067 6.13774 12.0001 6.13774C12.2929 6.13773 12.571 6.00935 12.7609 5.78661C12.7612 5.78635 12.7614 5.7861 12.7616 5.78584C12.7618 5.78554 12.7621 5.78524 12.7624 5.78494L12.7775 5.7679C12.7931 5.75063 12.8192 5.72219 12.8555 5.68469C12.9281 5.60954 13.0402 5.49903 13.188 5.36978C13.4857 5.10934 13.9154 4.7838 14.4454 4.51536C15.4864 3.98814 16.8869 3.68539 18.5257 4.51537C19.5957 5.05726 20.2669 5.83712 20.6372 6.77236C21.0149 7.72636 21.1006 8.89997 20.8806 10.2261C20.5391 12.2839 19.0718 14.3153 17.2738 16.0763C15.4995 17.8141 13.5295 19.1668 12.4038 19.8798C12.1507 20.0401 11.8493 20.0401 11.5963 19.8798C10.4705 19.1668 8.50054 17.8141 6.72617 16.0763C4.92818 14.3153 3.46078 12.2839 3.11934 10.2261C2.89931 8.89997 2.98498 7.72636 3.36269 6.77236C3.73297 5.83712 4.40422 5.05726 5.47421 4.51537C7.11305 3.68539 8.51359 3.98813 9.55463 4.51537C10.0847 4.78381 10.5144 5.10935 10.8121 5.36979C10.9598 5.49904 11.072 5.60955 11.1446 5.68471C11.1809 5.72221 11.207 5.75065 11.2226 5.76792L11.2382 5.78545Z" fill="currentColor"/>
</svg>
