<svg width="24" height="24" viewBox="0 0 24 24" fill="currentColor" xmlns="http://www.w3.org/2000/svg">
<path fill-rule="evenodd" clip-rule="evenodd" d="M20.8402 3.66128C19.2781 2.09918 16.7454 2.09918 15.1833 3.66128L14.5516 4.29301L4.57674 14.2679C3.96475 14.8799 3.56776 15.6738 3.44537 16.5306L3.06824 19.1705C2.87968 20.4904 4.01105 21.6218 5.33098 21.4332L7.97085 21.0561C8.82763 20.9337 9.6216 20.5367 10.2336 19.9247L20.2085 9.94986L20.8402 9.31813C22.4023 7.75604 22.4023 5.22338 20.8402 3.66128ZM19.426 5.07549C20.1817 5.83126 20.2062 7.04139 19.4994 7.82657L16.6749 5.00209C17.4601 4.29526 18.6702 4.31973 19.426 5.07549ZM15.2587 6.41433L18.0871 9.24276L8.81938 18.5105C8.51338 18.8165 8.1164 19.015 7.68801 19.0762L5.04814 19.4533L5.42526 16.8135C5.48646 16.3851 5.68496 15.9881 5.99095 15.6821L15.2587 6.41433Z" fill="currentColor"/>
</svg>
