<svg width="24" height="24" viewBox="0 0 24 24" fill="currentColor" xmlns="http://www.w3.org/2000/svg">
<path d="M7.5 4C8.05229 4 8.5 3.55228 8.5 3C8.5 2.44772 8.05229 2 7.5 2H6C3.79086 2 2 3.79086 2 6V18C2 20.2091 3.79086 22 6 22H7.5C8.05228 22 8.5 21.5523 8.5 21C8.5 20.4477 8.05229 20 7.5 20H6C4.89543 20 4 19.1046 4 18L4 6C4 4.89543 4.89543 4 6 4H7.5Z" fill="currentColor"/>
<path d="M22.7071 12.7071C23.0976 12.3166 23.0976 11.6834 22.7071 11.2929L18.7071 7.29289C18.3166 6.90237 17.6834 6.90237 17.2929 7.29289C16.9024 7.68342 16.9024 8.31658 17.2929 8.70711L19.5858 11L8 11C7.44771 11 7 11.4477 7 12C7 12.5523 7.44771 13 8 13L19.5858 13L17.2929 15.2929C16.9024 15.6834 16.9024 16.3166 17.2929 16.7071C17.6834 17.0976 18.3166 17.0976 18.7071 16.7071L22.7071 12.7071Z" fill="currentColor"/>
</svg>
