<svg width="24" height="24" viewBox="0 0 24 24" fill="currentColor" xmlns="http://www.w3.org/2000/svg">
<path fill-rule="evenodd" clip-rule="evenodd" d="M12 2C9.23858 2 7 4.23858 7 7C7 9.76142 9.23858 12 12 12C14.7614 12 17 9.76142 17 7C17 4.23858 14.7614 2 12 2ZM9 7C9 5.34315 10.3431 4 12 4C13.6569 4 15 5.34315 15 7C15 8.65685 13.6569 10 12 10C10.3431 10 9 8.65685 9 7Z" fill="currentColor"/>
<path fill-rule="evenodd" clip-rule="evenodd" d="M12 23C10.4595 23 8.22982 22.6502 6.55543 21.9174C5.73343 21.5576 4.89745 21.0427 4.41175 20.2974C4.15632 19.9054 3.99483 19.4437 4.00013 18.9282C4.00537 18.4174 4.17344 17.9281 4.45591 17.4728C5.82532 15.2656 8.62679 13 12 13C15.3732 13 18.1747 15.2656 19.5441 17.4728C19.8266 17.9281 19.9946 18.4174 19.9999 18.9282C20.0052 19.4437 19.8437 19.9054 19.5882 20.2974C19.1025 21.0427 18.2666 21.5576 17.4446 21.9174C15.7702 22.6502 13.5405 23 12 23ZM6.15539 18.5272C6.02372 18.7394 6.00077 18.8757 6.00002 18.9487C5.99932 19.017 6.01686 19.0973 6.08736 19.2055C6.25354 19.4605 6.65707 19.7787 7.35732 20.0852C8.72744 20.6848 10.6732 21 12 21C13.3268 21 15.2726 20.6848 16.6427 20.0852C17.3429 19.7787 17.7465 19.4605 17.9126 19.2055C17.9831 19.0973 18.0007 19.017 18 18.9487C17.9992 18.8757 17.9763 18.7394 17.8446 18.5272C16.7225 16.7185 14.4843 15 12 15C9.51566 15 7.27754 16.7185 6.15539 18.5272Z" fill="currentColor"/>
</svg>
